<svg width="69" height="60" xmlns="http://www.w3.org/2000/svg"><g id="01.-Tab-&amp;-Navigazione" stroke="none" stroke-width="1" fill="none" fill-rule="evenodd"><g id="3" transform="translate(-306 -573)" fill="#FFD300"><g id="Group-2" transform="translate(305 571)"><path d="M36.494 2.29a2 2 0 01.742.741l32.05 55.975A2 2 0 0167.55 62H3.45a2 2 0 01-1.736-2.994l32.05-55.975a2 2 0 012.73-.742zM35.5 46c-.773 0-1.383.287-1.83.862-.447.575-.67 1.299-.67 2.172 0 .843.217 1.548.652 2.115.435.567 1.05.851 1.848.851.797 0 1.413-.284 1.848-.85.435-.568.652-1.273.652-2.116 0-.873-.223-1.597-.67-2.172-.447-.575-1.057-.862-1.83-.862zM38 21h-5l.45 22h4.081L38 21z" id="Combined-Shape"/></g></g></g></svg>